<mxfile host="app.diagrams.net" agent="Mozilla/5.0 (Macintosh; Intel Mac OS X 10_15_7) AppleWebKit/605.1.15 (KHTML, like Gecko) Version/18.3.1 Safari/605.1.15" version="26.2.3">
  <diagram name="第 1 页" id="jNW1VUcBnsV5sVnraDgk">
    <mxGraphModel dx="1098" dy="811" grid="1" gridSize="5" guides="1" tooltips="1" connect="1" arrows="1" fold="1" page="1" pageScale="1" pageWidth="413" pageHeight="291" background="none" math="0" shadow="0">
      <root>
        <mxCell id="0" />
        <mxCell id="1" parent="0" />
        <mxCell id="kX-HRuTK46rpzUHU-1rg-3" value="" style="edgeStyle=orthogonalEdgeStyle;rounded=0;orthogonalLoop=1;jettySize=auto;html=1;sketch=1;curveFitting=1;jiggle=2;" parent="1" source="kX-HRuTK46rpzUHU-1rg-1" target="kX-HRuTK46rpzUHU-1rg-2" edge="1">
          <mxGeometry relative="1" as="geometry" />
        </mxCell>
        <mxCell id="kX-HRuTK46rpzUHU-1rg-1" value="Sign In" style="strokeWidth=2;html=1;shape=mxgraph.flowchart.start_1;whiteSpace=wrap;sketch=1;curveFitting=1;jiggle=2;" parent="1" vertex="1">
          <mxGeometry x="365" y="55" width="100" height="60" as="geometry" />
        </mxCell>
        <mxCell id="kX-HRuTK46rpzUHU-1rg-5" value="" style="edgeStyle=orthogonalEdgeStyle;rounded=0;orthogonalLoop=1;jettySize=auto;html=1;sketch=1;curveFitting=1;jiggle=2;" parent="1" source="kX-HRuTK46rpzUHU-1rg-2" target="kX-HRuTK46rpzUHU-1rg-4" edge="1">
          <mxGeometry relative="1" as="geometry" />
        </mxCell>
        <mxCell id="kX-HRuTK46rpzUHU-1rg-2" value="email/password" style="whiteSpace=wrap;html=1;strokeWidth=2;fontSize=18;sketch=1;curveFitting=1;jiggle=2;" parent="1" vertex="1">
          <mxGeometry x="285" y="160" width="260" height="60" as="geometry" />
        </mxCell>
        <mxCell id="kX-HRuTK46rpzUHU-1rg-7" value="" style="edgeStyle=orthogonalEdgeStyle;rounded=0;orthogonalLoop=1;jettySize=auto;html=1;sketch=1;curveFitting=1;jiggle=2;" parent="1" source="kX-HRuTK46rpzUHU-1rg-4" target="kX-HRuTK46rpzUHU-1rg-6" edge="1">
          <mxGeometry relative="1" as="geometry" />
        </mxCell>
        <mxCell id="kX-HRuTK46rpzUHU-1rg-8" value="Yes" style="edgeLabel;html=1;align=center;verticalAlign=middle;resizable=0;points=[];fontSize=16;sketch=1;curveFitting=1;jiggle=2;" parent="kX-HRuTK46rpzUHU-1rg-7" vertex="1" connectable="0">
          <mxGeometry x="-0.0444" relative="1" as="geometry">
            <mxPoint as="offset" />
          </mxGeometry>
        </mxCell>
        <mxCell id="YtWRvxMzmQTGhIAU2dXL-1" style="edgeStyle=orthogonalEdgeStyle;rounded=0;sketch=1;hachureGap=4;jiggle=2;curveFitting=1;orthogonalLoop=1;jettySize=auto;html=1;exitX=1;exitY=0.5;exitDx=0;exitDy=0;entryX=1;entryY=0.5;entryDx=0;entryDy=0;fontFamily=Architects Daughter;fontSource=https%3A%2F%2Ffonts.googleapis.com%2Fcss%3Ffamily%3DArchitects%2BDaughter;fontSize=16;" edge="1" parent="1" source="kX-HRuTK46rpzUHU-1rg-4" target="kX-HRuTK46rpzUHU-1rg-2">
          <mxGeometry relative="1" as="geometry" />
        </mxCell>
        <mxCell id="YtWRvxMzmQTGhIAU2dXL-3" value="No" style="edgeLabel;html=1;align=center;verticalAlign=middle;resizable=0;points=[];sketch=1;hachureGap=4;jiggle=2;curveFitting=1;fontFamily=Architects Daughter;fontSource=https%3A%2F%2Ffonts.googleapis.com%2Fcss%3Ffamily%3DArchitects%2BDaughter;fontSize=16;" vertex="1" connectable="0" parent="YtWRvxMzmQTGhIAU2dXL-1">
          <mxGeometry x="-0.0824" relative="1" as="geometry">
            <mxPoint as="offset" />
          </mxGeometry>
        </mxCell>
        <mxCell id="kX-HRuTK46rpzUHU-1rg-4" value="&lt;span style=&quot;font-size: 16px; text-align: start; caret-color: rgba(0, 0, 0, 0.85); color: rgba(0, 0, 0, 0.85); font-family: Inter, -apple-system, BlinkMacSystemFont, &amp;quot;Segoe UI&amp;quot;, &amp;quot;SF Pro SC&amp;quot;, &amp;quot;SF Pro Display&amp;quot;, &amp;quot;SF Pro Icons&amp;quot;, &amp;quot;PingFang SC&amp;quot;, &amp;quot;Hiragino Sans GB&amp;quot;, &amp;quot;Microsoft YaHei&amp;quot;, &amp;quot;Helvetica Neue&amp;quot;, Helvetica, Arial, sans-serif; background-color: rgb(255, 255, 255);&quot;&gt;&amp;nbsp;account &amp;nbsp;and password correct&lt;/span&gt;" style="rhombus;whiteSpace=wrap;html=1;strokeWidth=2;sketch=1;curveFitting=1;jiggle=2;" parent="1" vertex="1">
          <mxGeometry x="275" y="270" width="280" height="80" as="geometry" />
        </mxCell>
        <mxCell id="kX-HRuTK46rpzUHU-1rg-6" value="go to project dashboard" style="rounded=1;whiteSpace=wrap;html=1;strokeWidth=2;fontSize=16;sketch=1;curveFitting=1;jiggle=2;" parent="1" vertex="1">
          <mxGeometry x="285" y="410" width="260" height="60" as="geometry" />
        </mxCell>
      </root>
    </mxGraphModel>
  </diagram>
</mxfile>
